<svg width="332" height="308" viewBox="0 0 332 308" fill="none" xmlns="http://www.w3.org/2000/svg">
<g clip-path="url(#clip0_62_40)">
<path d="M298.781 251.68C244.527 268.209 252.453 247.223 202.925 261.238C153.397 275.254 141.082 310.437 107.223 307.419C62.4141 303.419 77.7067 257.763 39.8214 233.55C-14.17 199.053 -10.9703 135.866 35.6268 111.458C82.2239 87.0504 101.516 116.742 129.802 93.7052C158.089 70.6755 180.13 -12.2743 228.737 1.5462C324.392 28.7435 252.305 111.976 302.854 150.211C342.756 180.386 340.686 238.914 298.781 251.68Z" fill="url(#paint0_linear_62_40)"/>
<path d="M249.347 127.228C249.347 127.228 214.984 118.98 217.733 77.747C217.733 77.747 200.296 64.3567 164.132 64.0206V64.0072C163.896 64.0072 163.675 64.0139 163.446 64.0139C163.218 64.0139 162.989 64.0072 162.76 64.0072V64.0206C126.589 64.3567 109.159 77.747 109.159 77.747C111.908 118.98 77.5453 127.228 77.5453 127.228C97.6441 227.729 163.002 235.816 163.446 235.802C163.89 235.816 229.248 227.729 249.347 127.228Z" fill="#0A0A8F"/>
<path d="M228.045 132.854C228.045 132.854 202.205 126.65 204.276 95.6478C204.276 95.6478 191.161 85.5782 163.964 85.3228V85.3093C163.789 85.3093 163.621 85.316 163.446 85.316C163.271 85.316 163.103 85.3093 162.929 85.3093V85.3228C135.731 85.5782 122.617 95.6478 122.617 95.6478C124.687 126.657 98.8474 132.854 98.8474 132.854C113.965 208.43 163.11 214.513 163.446 214.5C163.782 214.507 212.927 208.43 228.045 132.854Z" fill="url(#paint1_linear_62_40)"/>
<path d="M129.769 196.25H169.2C173.267 196.25 176.568 192.949 176.568 188.882V82.5264V62.32C176.568 58.2532 173.267 54.9526 169.2 54.9526H115.861C111.794 54.9526 108.494 58.2532 108.494 62.32V125.366V165.409" fill="url(#paint2_linear_62_40)"/>
<path d="M105.643 158.687V127.275" stroke="black" stroke-width="0.672203" stroke-miterlimit="10"/>
<path d="M170.901 51.5446H114.718C109.703 51.5446 105.637 55.6114 105.637 60.626V127.275V158.687C106.558 161.02 107.505 163.258 108.494 165.402V125.366V62.32C108.494 58.2531 111.794 54.9526 115.861 54.9526H169.2C173.267 54.9526 176.568 58.2531 176.568 62.32V82.5264V188.889C176.568 192.956 173.267 196.256 169.2 196.256H129.769C131.019 197.466 132.269 198.596 133.513 199.664H170.894C175.909 199.664 179.976 195.598 179.976 190.583V83.0036V60.626C179.982 55.6114 175.915 51.5446 170.901 51.5446Z" fill="white"/>
<path d="M172.319 120.23V130.992L164.784 120.23H120.183C116.069 120.23 112.735 117.165 112.735 113.38V99.9297C112.735 96.5552 115.713 93.8193 119.383 93.8193H165.577C169.301 93.8193 172.312 96.5955 172.312 100.017V120.23H172.319Z" fill="white"/>
<path d="M156.106 143.475H128.377C125.85 143.475 123.8 141.425 123.8 138.897V132.169C123.8 129.641 125.85 127.591 128.377 127.591H156.106C158.633 127.591 160.683 129.641 160.683 132.169V138.897C160.683 141.425 158.633 143.475 156.106 143.475Z" fill="#FECC15"/>
<path d="M159.299 60.626H130.858C130.407 60.626 130.038 60.263 130.038 59.8059V58.6027C130.038 58.1523 130.401 57.7826 130.858 57.7826H159.299C159.749 57.7826 160.119 58.1456 160.119 58.6027V59.8059C160.119 60.263 159.749 60.626 159.299 60.626Z" fill="white"/>
<path d="M124.082 60.626C124.865 60.626 125.5 59.991 125.5 59.2077C125.5 58.4243 124.865 57.7893 124.082 57.7893C123.299 57.7893 122.664 58.4243 122.664 59.2077C122.664 59.991 123.299 60.626 124.082 60.626Z" fill="white"/>
<path d="M123.282 101.146L122.906 104.514L126.314 103.56L126.616 105.865L123.504 106.087L125.541 108.803L123.463 109.912L122.038 107.048L120.788 109.892L118.63 108.803L120.654 106.087L117.562 105.852L117.918 103.566L121.259 104.521L120.882 101.153H123.282V101.146Z" fill="#001893"/>
<path d="M133.486 101.146L133.11 104.514L136.518 103.56L136.82 105.865L133.708 106.087L135.745 108.803L133.668 109.912L132.242 107.048L130.992 109.892L128.834 108.803L130.858 106.087L127.766 105.852L128.122 103.566L131.463 104.521L131.086 101.153H133.486V101.146Z" fill="#001893"/>
<path d="M143.69 101.146L143.314 104.514L146.722 103.56L147.024 105.865L143.912 106.087L145.949 108.803L143.872 109.912L142.446 107.048L141.196 109.892L139.038 108.803L141.062 106.087L137.97 105.852L138.326 103.566L141.667 104.521L141.29 101.153H143.69V101.146Z" fill="#001893"/>
<path d="M153.894 101.146L153.518 104.514L156.932 103.56L157.235 105.865L154.123 106.087L156.159 108.803L154.082 109.912L152.657 107.048L151.407 109.892L149.249 108.803L151.272 106.087L148.18 105.852L148.537 103.566L151.877 104.521L151.501 101.153H153.894V101.146Z" fill="#001893"/>
<path d="M164.098 101.146L163.722 104.514L167.13 103.56L167.432 105.865L164.32 106.087L166.357 108.803L164.28 109.912L162.855 107.048L161.604 109.892L159.446 108.803L161.47 106.087L158.378 105.852L158.734 103.566L162.075 104.521L161.698 101.153H164.098V101.146Z" fill="#001893"/>
<path d="M179.982 134.441V157.853C179.982 157.853 182.113 166.37 183.531 168.494C184.95 170.625 175.727 186.234 172.178 187.652C168.629 189.07 156.569 185.521 155.151 178.43C153.733 171.331 150.748 160.072 147.911 159.359C145.075 158.647 141.102 176.379 141.102 184.896C141.102 190.69 148.59 203.993 153.376 211.912C159.843 214.547 164.159 215.071 164.259 215.071C164.454 215.078 180.917 213.048 197.957 196.989C200.7 190.267 203.711 183.666 204.82 176.305C206.944 162.115 179.982 134.441 179.982 134.441Z" fill="#FFCBA7"/>
<path d="M216.251 133.862C225.834 129.97 230.447 119.047 226.555 109.464C222.663 99.8814 211.739 95.2682 202.157 99.1602C192.574 103.052 187.961 113.976 191.853 123.558C195.745 133.141 206.668 137.754 216.251 133.862Z" fill="#F35B59"/>
<path d="M212.532 149.212C213.035 146.12 210.936 143.205 207.843 142.702C204.75 142.198 201.836 144.298 201.332 147.39C200.829 150.483 202.928 153.398 206.021 153.901C209.113 154.404 212.028 152.305 212.532 149.212Z" fill="#FECC15"/>
</g>
<defs>
<linearGradient id="paint0_linear_62_40" x1="388.699" y1="217.822" x2="-84.3085" y2="83.1717" gradientUnits="userSpaceOnUse">
<stop stop-color="white"/>
<stop offset="1" stop-color="#FFDFDF"/>
</linearGradient>
<linearGradient id="paint1_linear_62_40" x1="110.511" y1="86.5651" x2="243.065" y2="225.666" gradientUnits="userSpaceOnUse">
<stop stop-color="#00009F"/>
<stop offset="1" stop-color="#5482FA"/>
</linearGradient>
<linearGradient id="paint2_linear_62_40" x1="100.271" y1="32.5458" x2="167.367" y2="160.192" gradientUnits="userSpaceOnUse">
<stop stop-color="#334BED"/>
<stop offset="1" stop-color="#5482FA"/>
</linearGradient>
<clipPath id="clip0_62_40">
<rect width="331.537" height="307.6" fill="white"/>
</clipPath>
</defs>
</svg>
