<svg width="332" height="308" viewBox="0 0 332 308" fill="none" xmlns="http://www.w3.org/2000/svg">
<path d="M298.778 251.676C244.525 268.206 252.45 247.22 202.922 261.235C153.394 275.251 141.079 310.434 107.221 307.415C62.4116 303.416 77.7042 257.76 39.8189 233.547C-14.1725 199.05 -10.9728 135.863 35.6243 111.455C82.2214 87.0472 101.514 116.738 129.8 93.702C158.086 70.6724 180.128 -12.2775 228.735 1.54302C324.389 28.7403 252.302 111.973 302.852 150.207C342.754 180.383 340.683 238.911 298.778 251.676Z" fill="url(#paint0_linear_95_151)"/>
<g clip-path="url(#clip0_95_151)">
<path fill-rule="evenodd" clip-rule="evenodd" d="M121.673 60.4429C172.289 60.4429 213.317 101.475 213.317 152.087C213.317 202.699 172.289 243.731 121.673 243.731C71.0562 243.731 30.0283 202.703 30.0283 152.087C30.0283 101.471 71.0608 60.4429 121.673 60.4429Z" fill="#E4E4FF"/>
<path fill-rule="evenodd" clip-rule="evenodd" d="M63.4673 109.111C91.2796 104.498 124.681 99.8943 181.185 109.357L174.075 143.442L178.464 248H62.1653C62.7 241.867 67.1316 192.134 67.4385 144.726L63.4673 109.111Z" fill="#00009F"/>
<path fill-rule="evenodd" clip-rule="evenodd" d="M271.657 29.2778H158.794C154.846 29.2778 151.615 32.5097 151.615 36.4576V89.7943C151.615 93.7422 154.846 96.974 158.794 96.974H271.657C275.605 96.974 278.837 93.7422 278.837 89.7943V36.4576C278.837 32.5097 275.605 29.2778 271.657 29.2778Z" fill="white" stroke="#E4E4FF" stroke-width="2.232" stroke-miterlimit="22.9256"/>
<path d="M172.866 63.6094H257.59C263.124 63.6094 267.653 68.1386 267.653 73.6722V74.0303C267.653 79.5639 263.124 84.0931 257.59 84.0931H172.866C167.332 84.0931 162.807 79.5639 162.807 74.0303V73.6722C162.803 68.1386 167.332 63.6094 172.866 63.6094Z" stroke="#E4E4FF" stroke-width="2.232" stroke-miterlimit="22.9256"/>
<path d="M172.456 52.0586V42.326H176.669C177.539 42.326 178.292 42.4655 178.92 42.7491C179.552 43.0328 180.036 43.4374 180.38 43.9675C180.724 44.4976 180.896 45.1253 180.896 45.8601C180.896 46.5808 180.724 47.2086 180.38 47.7387C180.036 48.2688 179.552 48.6734 178.92 48.957C178.288 49.2407 177.539 49.3802 176.669 49.3802H173.707L174.707 48.3665V52.0633H172.456V52.0586ZM174.707 48.6129L173.707 47.5434H176.544C177.237 47.5434 177.757 47.3946 178.102 47.097C178.446 46.7994 178.618 46.3855 178.618 45.8601C178.618 45.3206 178.446 44.9068 178.102 44.6092C177.757 44.3116 177.241 44.1628 176.544 44.1628H173.707L174.707 43.0932V48.6129ZM180.729 52.0586L185.067 42.326H187.29L191.643 52.0586H189.28L185.723 43.4653H186.611L183.04 52.0586H180.729ZM182.9 49.9754L183.5 48.2642H188.504L189.118 49.9754H182.9ZM195.856 52.2261C195.079 52.2261 194.33 52.1238 193.619 51.9145C192.907 51.7052 192.331 51.4355 191.894 51.1007L192.656 49.4034C193.075 49.701 193.568 49.9429 194.135 50.1335C194.707 50.3242 195.284 50.4172 195.865 50.4172C196.311 50.4172 196.669 50.3753 196.944 50.287C197.218 50.1986 197.418 50.0777 197.548 49.9196C197.678 49.7615 197.744 49.5801 197.744 49.3755C197.744 49.1151 197.641 48.9105 197.437 48.7571C197.232 48.6036 196.962 48.4781 196.632 48.3804C196.297 48.2828 195.93 48.1898 195.525 48.1014C195.121 48.0131 194.721 47.9061 194.316 47.7759C193.912 47.6457 193.545 47.4783 193.21 47.2737C192.875 47.0691 192.605 46.7994 192.396 46.4692C192.187 46.1344 192.084 45.7113 192.084 45.1904C192.084 44.6324 192.233 44.1256 192.535 43.6699C192.838 43.2095 193.289 42.8468 193.898 42.5724C194.507 42.2981 195.27 42.1632 196.186 42.1632C196.8 42.1632 197.399 42.233 197.995 42.3771C198.59 42.5213 199.111 42.7352 199.566 43.0235L198.869 44.7347C198.413 44.4743 197.962 44.2837 197.506 44.1581C197.051 44.0326 196.609 43.9721 196.172 43.9721C195.735 43.9721 195.381 44.0233 195.102 44.1256C194.823 44.2279 194.623 44.3581 194.502 44.5208C194.382 44.6836 194.321 44.8696 194.321 45.0835C194.321 45.3346 194.423 45.5346 194.628 45.688C194.833 45.8415 195.102 45.9624 195.432 46.0554C195.767 46.1484 196.135 46.2414 196.539 46.3344C196.944 46.4274 197.344 46.5343 197.748 46.6552C198.153 46.7761 198.52 46.9389 198.855 47.1435C199.19 47.3481 199.459 47.6178 199.669 47.948C199.878 48.2828 199.98 48.7013 199.98 49.2128C199.98 49.7615 199.827 50.2591 199.52 50.7148C199.213 51.1705 198.757 51.5332 198.153 51.8122C197.553 52.0865 196.786 52.2261 195.856 52.2261ZM204.728 52.2261C203.951 52.2261 203.203 52.1238 202.491 51.9145C201.78 51.7052 201.203 51.4355 200.766 51.1007L201.529 49.4034C201.947 49.701 202.44 49.9429 203.007 50.1335C203.579 50.3242 204.156 50.4172 204.737 50.4172C205.184 50.4172 205.542 50.3753 205.816 50.287C206.09 50.1986 206.29 50.0777 206.421 49.9196C206.551 49.7615 206.616 49.5801 206.616 49.3755C206.616 49.1151 206.514 48.9105 206.309 48.7571C206.104 48.6036 205.835 48.4781 205.505 48.3804C205.17 48.2828 204.802 48.1898 204.398 48.1014C203.993 48.0131 203.593 47.9061 203.189 47.7759C202.784 47.6457 202.417 47.4783 202.082 47.2737C201.747 47.0691 201.478 46.7994 201.268 46.4692C201.059 46.1344 200.957 45.7113 200.957 45.1904C200.957 44.6324 201.106 44.1256 201.408 43.6699C201.71 43.2095 202.161 42.8468 202.77 42.5724C203.379 42.2981 204.137 42.1632 205.058 42.1632C205.672 42.1632 206.272 42.233 206.867 42.3771C207.462 42.5213 207.983 42.7352 208.439 43.0235L207.741 44.7347C207.286 44.4743 206.835 44.2837 206.379 44.1581C205.923 44.0326 205.481 43.9721 205.044 43.9721C204.607 43.9721 204.254 44.0233 203.975 44.1256C203.696 44.2279 203.496 44.3581 203.375 44.5208C203.254 44.6836 203.193 44.8696 203.193 45.0835C203.193 45.3346 203.296 45.5346 203.5 45.688C203.705 45.8415 203.975 45.9624 204.305 46.0554C204.64 46.1484 205.007 46.2414 205.412 46.3344C205.816 46.4274 206.216 46.5343 206.621 46.6552C207.025 46.7761 207.393 46.9389 207.727 47.1435C208.062 47.3481 208.332 47.6178 208.541 47.948C208.75 48.2828 208.853 48.7013 208.853 49.2128C208.853 49.7615 208.699 50.2591 208.392 50.7148C208.085 51.1705 207.63 51.5332 207.021 51.8122C206.421 52.0865 205.653 52.2261 204.728 52.2261ZM212.735 52.0586L209.55 42.326H211.885L214.651 50.9473H213.484L216.377 42.326H218.46L221.241 50.9473H220.115L222.952 42.326H225.105L221.919 52.0586H219.501L217.041 44.4929H217.683L215.154 52.0586H212.735ZM230.978 52.2261C230.211 52.2261 229.499 52.1005 228.843 51.8494C228.188 51.5983 227.625 51.2449 227.146 50.7938C226.667 50.3381 226.3 49.808 226.035 49.1942C225.77 48.5804 225.64 47.9154 225.64 47.19C225.64 46.4646 225.77 45.7996 226.035 45.1858C226.3 44.572 226.672 44.0419 227.155 43.5862C227.639 43.1304 228.202 42.7817 228.853 42.5306C229.504 42.2795 230.206 42.1539 230.969 42.1539C231.736 42.1539 232.443 42.2795 233.089 42.5306C233.735 42.7817 234.293 43.1351 234.772 43.5862C235.251 44.0419 235.623 44.572 235.893 45.1765C236.163 45.7857 236.298 46.4553 236.298 47.1853C236.298 47.9061 236.163 48.5757 235.893 49.1942C235.623 49.8127 235.251 50.3428 234.772 50.7938C234.293 51.2449 233.735 51.5936 233.089 51.8447C232.443 52.1005 231.74 52.2261 230.978 52.2261ZM230.964 50.3102C231.401 50.3102 231.801 50.2358 232.168 50.087C232.536 49.9382 232.856 49.7243 233.135 49.4453C233.415 49.1663 233.628 48.8361 233.782 48.4595C233.935 48.0782 234.01 47.6597 234.01 47.1946C234.01 46.7296 233.935 46.3111 233.782 45.9298C233.628 45.5485 233.415 45.2183 233.14 44.944C232.866 44.665 232.545 44.4511 232.173 44.3023C231.801 44.1535 231.401 44.0791 230.964 44.0791C230.527 44.0791 230.127 44.1535 229.76 44.3023C229.392 44.4511 229.071 44.665 228.792 44.944C228.513 45.223 228.299 45.5532 228.146 45.9298C227.992 46.3111 227.918 46.7296 227.918 47.1946C227.918 47.6504 227.992 48.0689 228.146 48.4548C228.299 48.8408 228.513 49.1709 228.788 49.4499C229.062 49.7289 229.383 49.9429 229.755 50.0917C230.127 50.2358 230.527 50.3102 230.964 50.3102ZM237.986 52.0586V42.326H242.199C243.068 42.326 243.821 42.4655 244.449 42.7491C245.082 43.0328 245.565 43.4374 245.909 43.9675C246.253 44.4976 246.425 45.1253 246.425 45.8601C246.425 46.5808 246.253 47.2086 245.909 47.7294C245.565 48.2549 245.082 48.6548 244.449 48.9338C243.817 49.2128 243.068 49.3523 242.199 49.3523H239.236L240.236 48.3665V52.0633H237.986V52.0586ZM244.175 52.0586L241.743 48.5292H244.147L246.607 52.0586H244.175ZM240.236 48.6129L239.236 47.5573H242.073C242.766 47.5573 243.287 47.4085 243.631 47.1063C243.975 46.804 244.147 46.3902 244.147 45.8601C244.147 45.3206 243.975 44.9068 243.631 44.6092C243.287 44.3116 242.771 44.1628 242.073 44.1628H239.236L240.236 43.0932V48.6129ZM248.206 52.0586V42.326H252.629C253.684 42.326 254.619 42.5259 255.423 42.9305C256.228 43.3351 256.86 43.8977 257.316 44.6185C257.772 45.3392 258 46.1995 258 47.19C258 48.1712 257.772 49.0268 257.316 49.7568C256.86 50.4869 256.233 51.0496 255.423 51.4541C254.619 51.8587 253.684 52.0586 252.629 52.0586H248.206ZM250.457 50.2126H252.517C253.168 50.2126 253.731 50.0917 254.205 49.8452C254.684 49.5987 255.051 49.25 255.316 48.7943C255.582 48.3386 255.712 47.8085 255.712 47.1946C255.712 46.5715 255.582 46.0368 255.316 45.5904C255.051 45.1393 254.679 44.7952 254.205 44.5487C253.726 44.3023 253.163 44.1814 252.517 44.1814H250.457V50.2126Z" fill="#00009F"/>
<path d="M185.44 72.7887L182.952 74.1465V73.5746L185.44 74.9138L184.328 76.7553L182.031 75.3742L182.319 75.2021L182.375 77.7504H180.19L180.25 75.2021L180.538 75.3742L178.237 76.7553L177.144 74.9138L179.636 73.5746V74.1465L177.144 72.7887L178.237 70.9473L180.538 72.3469L180.25 72.519L180.19 69.9521H182.375L182.319 72.519L182.031 72.3469L184.328 70.9473L185.44 72.7887Z" fill="#00009F"/>
<path d="M199.013 72.7887L196.521 74.1465V73.5746L199.013 74.9138L197.902 76.7553L195.605 75.3742L195.893 75.2021L195.949 77.7504H193.763L193.824 75.2021L194.107 75.3742L191.81 76.7553L190.717 74.9138L193.21 73.5746V74.1465L190.717 72.7887L191.81 70.9473L194.107 72.3469L193.824 72.519L193.763 69.9521H195.949L195.893 72.519L195.605 72.3469L197.902 70.9473L199.013 72.7887Z" fill="#00009F"/>
<path d="M212.587 72.7887L210.094 74.1465V73.5746L212.587 74.9138L211.475 76.7553L209.178 75.3742L209.462 75.2021L209.522 77.7504H207.337L207.393 75.2021L207.681 75.3742L205.384 76.7553L204.291 74.9138L206.783 73.5746V74.1465L204.291 72.7887L205.384 70.9473L207.681 72.3469L207.393 72.519L207.337 69.9521H209.522L209.462 72.519L209.178 72.3469L211.475 70.9473L212.587 72.7887Z" fill="#00009F"/>
<path d="M226.16 72.7887L223.668 74.1465V73.5746L226.16 74.9138L225.049 76.7553L222.747 75.3742L223.036 75.2021L223.096 77.7504H220.91L220.966 75.2021L221.255 75.3742L218.957 76.7553L217.865 74.9138L220.352 73.5746V74.1465L217.865 72.7887L218.957 70.9473L221.255 72.3469L220.966 72.519L220.91 69.9521H223.096L223.036 72.519L222.747 72.3469L225.049 70.9473L226.16 72.7887Z" fill="#00009F"/>
<path d="M239.734 72.7887L237.242 74.1465V73.5746L239.734 74.9138L238.623 76.7553L236.321 75.3742L236.609 75.2021L236.67 77.7504H234.484L234.54 75.2021L234.828 75.3742L232.531 76.7553L231.438 74.9138L233.926 73.5746V74.1465L231.438 72.7887L232.531 70.9473L234.828 72.3469L234.54 72.519L234.484 69.9521H236.67L236.609 72.519L236.321 72.3469L238.623 70.9473L239.734 72.7887Z" fill="#00009F"/>
<path d="M253.308 72.7887L250.815 74.1465V73.5746L253.308 74.9138L252.196 76.7553L249.895 75.3742L250.183 75.2021L250.239 77.7504H248.058L248.114 75.2021L248.402 75.3742L246.1 76.7553L245.012 74.9138L247.5 73.5746V74.1465L245.012 72.7887L246.1 70.9473L248.402 72.3469L248.114 72.519L248.058 69.9521H250.239L250.183 72.519L249.895 72.3469L252.196 70.9473L253.308 72.7887Z" fill="#00009F"/>
<path fill-rule="evenodd" clip-rule="evenodd" d="M259.939 37.5503L274.475 13.3279C275.01 12.4351 275.907 11.9282 276.949 11.9282C277.99 11.9282 278.888 12.4351 279.423 13.3279L293.959 37.5503C294.508 38.4664 294.522 39.5266 293.996 40.4566C293.471 41.3866 292.555 41.9214 291.485 41.9214H262.417C261.348 41.9214 260.432 41.3866 259.906 40.4566C259.376 39.5266 259.39 38.4664 259.939 37.5503Z" fill="#00009F"/>
<path d="M275.996 31.6167L275.544 19.6147H278.376L277.902 31.6167H275.996ZM276.972 37.3037C276.502 37.3037 276.112 37.1456 275.796 36.8294C275.479 36.5132 275.321 36.1366 275.321 35.7041C275.321 35.2344 275.479 34.8531 275.796 34.5509C276.112 34.2486 276.507 34.0998 276.972 34.0998C277.437 34.0998 277.823 34.2486 278.125 34.5509C278.428 34.8531 278.576 35.2344 278.576 35.7041C278.576 36.1366 278.428 36.5132 278.125 36.8294C277.823 37.1456 277.442 37.3037 276.972 37.3037Z" fill="white"/>
<path fill-rule="evenodd" clip-rule="evenodd" d="M63.4673 109.111C42.9278 114.021 42.5604 130.394 39.2031 142.875C36.8455 158.658 35.0366 174.091 34.1158 189.306C38.1568 203.824 73.2465 181.559 76.7154 179.09C75.4646 157.193 72.628 134.593 63.4673 109.111Z" fill="#00009F"/>
<path fill-rule="evenodd" clip-rule="evenodd" d="M212.991 193.571C212.991 193.571 205.412 137.788 200.018 124.693C195.619 114.017 190.02 111.11 181.185 109.352C161.589 105.456 157.618 182.503 174.567 196.695C191.299 210.711 213.042 202.996 212.991 193.571Z" fill="#00009F"/>
<path fill-rule="evenodd" clip-rule="evenodd" d="M102.863 81.3264C104.569 87.5854 102.998 97.3367 101.696 103.107C95.8133 129.195 150.689 131.268 144.621 104.354C143.319 98.5829 142.472 87.5854 144.184 81.3264C143.761 72.6028 103.281 72.6028 102.863 81.3264Z" fill="#FCC6AE"/>
<path fill-rule="evenodd" clip-rule="evenodd" d="M87.2154 58.9314C82.821 54.1743 74.2462 62.8142 81.0028 71.7703C83.7975 75.4765 88.4244 77.8015 92.9768 75.3788C93.5023 75.5183 103.258 100.517 124.086 98.7037C144.384 96.1601 150.01 69.5476 150.978 69.3616C156.995 71.11 161.687 65.9624 162.928 60.5589C164.96 51.7144 156.139 47.241 153.238 52.0818C151.675 30.8169 141.705 15.3739 116.288 17.5548C90.968 20.6378 84.3788 37.8013 87.2154 58.9314Z" fill="#FCC6AE"/>
<path fill-rule="evenodd" clip-rule="evenodd" d="M119.083 56.5924C117.418 61.1542 119.538 63.1723 120.668 63.9164C122.57 65.1672 121.645 66.3995 119.952 65.8787C117.395 65.0975 114.139 62.9584 116.446 56.1786C118.873 49.036 120.408 43.7442 115.869 36.597C115.367 35.2252 124.751 41.0936 119.083 56.5924Z" fill="#EE9A7F"/>
<path fill-rule="evenodd" clip-rule="evenodd" d="M146.899 79.1222C134.916 101.596 110.391 99.7407 97.2642 82.8516C108.108 101.643 135.009 108.004 146.899 79.1222Z" fill="#EE9A7F"/>
<path fill-rule="evenodd" clip-rule="evenodd" d="M136.241 44.7347C136.548 46.8505 135.088 48.8501 132.972 49.2081C130.861 49.5615 128.899 48.1432 128.592 46.0274C128.28 43.9117 129.745 41.9121 131.852 41.5541C133.972 41.196 135.934 42.6189 136.241 44.7347Z" fill="#102550"/>
<path fill-rule="evenodd" clip-rule="evenodd" d="M111.368 47.7712C111.68 49.8823 110.215 51.8865 108.099 52.2446C105.988 52.598 104.025 51.1797 103.719 49.0639C103.407 46.9481 104.872 44.9439 106.983 44.5905C109.094 44.2278 111.061 45.6554 111.368 47.7712Z" fill="#102550"/>
<path fill-rule="evenodd" clip-rule="evenodd" d="M159.297 54.4255C154.084 54.3836 153.382 61.6006 155.609 64.0558C157.097 65.6973 155.056 65.1067 153.698 62.9165C151.922 60.0474 153.047 54.8161 156.204 53.8628C158.227 53.249 160.092 54.4301 159.297 54.4255Z" fill="#EE9A7F"/>
<path fill-rule="evenodd" clip-rule="evenodd" d="M81.8073 62.4657C86.9038 61.3543 89.0708 68.2737 87.3921 71.1335C86.2714 73.0493 88.15 72.0496 89.0289 69.6269C90.1821 66.4555 88.0012 61.5636 84.7136 61.2799C82.6164 61.0939 81.0307 62.6331 81.8073 62.4657Z" fill="#EE9A7F"/>
<path d="M109.401 36.6343C107.601 37.183 104.328 37.9874 101.138 37.183C96.6642 36.0576 100.747 40.8054 106.481 40.3125C111.456 39.88 114.111 35.202 109.401 36.6343Z" fill="#102550"/>
<path fill-rule="evenodd" clip-rule="evenodd" d="M85.6622 57.8109C89.3125 59.536 92.2189 65.8648 92.4281 64.9441C93.865 58.5921 91.7864 56.5879 92.0143 47.3435C92.0654 45.2184 93.4651 36.1786 96.3714 31.4029C102.979 20.5403 126.523 23.5256 134.795 23.9069C139.278 24.1116 143.742 32.3143 145.853 39.2895C148.364 47.5853 147.578 54.8301 149.252 58.4898C149.643 59.3454 151.438 52.6957 155.79 50.2033C160.287 40.0986 156.386 11.3656 137.497 8.85457C117.943 -9.15994 91.2144 11.254 79.91 23.7628C81.7003 23.8418 84.3276 25.0974 83.8068 26.7807C79.5008 40.7124 80.0635 48.8873 85.6622 57.8109Z" fill="#102550"/>
<path d="M116.892 74.5C119.124 74.3559 123.337 73.7328 127.704 73.4491C133.451 73.0724 128.494 68.7711 122.007 69.4268C115.646 70.0685 110.684 74.9092 116.892 74.5Z" fill="#102550"/>
<path d="M127.146 35.3414C128.876 34.6114 132.047 33.4767 135.311 33.9464C139.882 34.6067 135.316 30.3054 129.661 31.3888C124.756 32.3235 122.612 37.248 127.146 35.3414Z" fill="#102550"/>
<path d="M60.547 248C64.3322 222.797 64.8948 168.548 67.4338 142.443C70.1913 154.975 64.6251 232.008 63.7974 248H60.547Z" fill="#1771BF"/>
<path d="M180.087 248C176.809 222.797 176.009 168.548 173.996 142.443C170.982 154.975 176.33 232.008 176.837 248H180.087Z" fill="#1771BF"/>
<path fill-rule="evenodd" clip-rule="evenodd" d="M96.0459 113.008C94.7764 122.926 109.541 125.214 116.52 125.2C118.748 121.638 121.84 117.011 124.384 113.468C129.88 116.058 133.935 108.883 134.549 105.005C134.851 103.089 134.4 101.847 133.535 101.336C134.805 99.7733 137.395 95.4208 132.884 93.2027C133.298 90.0965 131.475 85.544 127.648 85.9114C126.648 81.9913 123.133 75.6254 118.487 77.5831C114.177 79.3966 106.616 86.0369 104.658 87.5808C103.881 82.4889 101.989 79.5314 100.57 77.8063C99.5567 76.574 98.5105 75.5835 96.404 74.6116C94.8601 73.9002 91.9724 74.965 92.2747 76.9646C92.5769 78.9641 95.8925 82.4936 95.9064 85.8137C95.9204 89.1339 96.204 93.6352 95.9064 97.2855C95.4879 102.326 96.5993 108.683 96.0459 113.008Z" fill="#FCC6AE"/>
<path fill-rule="evenodd" clip-rule="evenodd" d="M36.6641 185.563C36.6641 185.563 37.0361 206.037 40.0865 214.231C43.137 222.42 47.243 227.902 47.243 227.902L53.8694 178.36C53.8741 178.355 38.6729 178.937 36.6641 185.563Z" fill="#FCC6AE"/>
<path fill-rule="evenodd" clip-rule="evenodd" d="M96.0086 114.403C88.6521 136.528 72.3768 158.774 56.2688 175.775C39.0309 193.961 32.1906 229.567 54.6366 232.892C74.2461 237.649 93.9114 184.619 101.193 165.693C107.22 150.041 115.162 128.46 117.008 123.991C119.831 117.141 96.0086 114.403 96.0086 114.403Z" fill="#FCC6AE"/>
<path fill-rule="evenodd" clip-rule="evenodd" d="M209.476 192.073C209.476 192.073 214.717 227.028 212.866 233.422C211.02 239.816 176.646 219.639 176.646 219.639L176.944 192.394C176.972 190.292 199.99 187.088 209.476 192.073Z" fill="#FCC6AE"/>
<path fill-rule="evenodd" clip-rule="evenodd" d="M137.855 191.971C149.029 203.471 185.691 258.658 208.034 241.676C211.178 239.286 213.266 235.105 213.21 229.437C213.08 215.896 204.607 207 197.902 203.127C180.236 192.92 168.025 191.613 154.233 171.752C150.513 166.391 137.855 191.971 137.855 191.971Z" fill="#FCC6AE"/>
<path d="M103.858 87.976C103.849 84.0653 100.682 77.0576 96.7433 75.3324C94.0555 74.1512 92.2559 75.3138 93.2976 78.1503C94.2694 80.7962 96.4224 81.5356 96.5759 88.362C96.6642 92.3099 96.1434 97.8435 96.5015 101.331C96.7433 103.712 97.213 113.403 96.5573 115.36C89.0009 137.89 73.33 159.257 57.0826 176.402C51.1072 182.708 46.0758 192.65 43.574 200.955C43.0114 191.711 51.1583 180.346 55.8549 175.389C72.1768 158.165 87.5826 137.56 95.1669 114.919C95.697 113.333 95.525 103.47 95.3204 101.419C94.9577 97.8761 95.3111 92.482 95.2181 88.4922C95.0414 80.759 92.4652 80.9078 91.8188 76.8576C91.484 74.7744 93.3022 73.6816 95.0925 73.7374C99.9054 73.8769 105.146 81.5868 105.141 86.3066C109.285 82.3029 115.683 77.3691 119.473 76.453C124.128 75.3277 127.09 81.3171 128.211 85.1487C131.945 84.7953 134.088 90.0779 133.856 93.1144C137.297 94.5466 136.478 98.4341 134.437 101.131C136.26 102.456 135.511 106.209 134.288 108.074C134.284 108.083 132.861 111.315 130.931 113.166C127.401 115.956 125.523 114.477 124.653 114.416C123.314 116.225 118.929 122.712 118.548 123.898C116.897 129.041 84.2857 227.684 61.5513 233.287C36.7384 239.402 36.9476 201.852 36.6547 185.572C36.8267 184.847 37.4405 183.843 37.8916 183.447C38.1334 197.667 38.1659 238.681 62.3744 230.562C80.5609 224.461 108.908 144.154 116.469 123.614C116.888 122.475 126.178 109.748 127.448 108.348C127.727 108.753 127.457 109.678 126.848 110.892C128.02 110.403 128.35 109.706 129.601 109.12C129.489 110.58 127.527 111.775 126.118 112.231C124.923 114.277 129.034 112.57 130.215 111.436C131.684 110.078 135.744 103.126 132.651 102.54C129.406 102.029 125.444 102.168 121.714 102.182C119.998 102.191 119.482 101.94 118.399 100.522C123.068 100.452 128.564 99.8989 133.13 100.638C133.321 100.145 136.99 95.4952 132.665 94.249C128.187 92.9051 114.674 94.9791 114.283 92.9144C118.543 92.4913 127.508 91.6868 132.168 92.5936C132.191 90.7568 130.949 86.6414 128.657 86.6182C126.457 86.5949 120.291 88.1574 117.064 88.9618C114.828 89.5198 113.656 89.5524 112.544 89.0037C113.507 88.6363 114.995 88.1667 116.702 87.683C117.985 86.6972 119.399 85.4324 120.454 84.5628L121.817 86.3531C123.588 85.9346 125.304 85.5765 126.685 85.3533C125.732 82.2843 123.412 77.2529 119.98 78.0852C115.497 79.1687 103.346 90.3941 102.458 89.836C102.733 89.5291 103.528 88.3201 103.858 87.976Z" fill="#EE9A7F"/>
<path fill-rule="evenodd" clip-rule="evenodd" d="M110.331 120.034H140.822C143.082 120.034 144.932 121.885 144.932 124.145V164.4C144.932 166.66 143.082 168.511 140.822 168.511H110.331C108.071 168.511 106.22 166.66 106.22 164.4V124.145C106.22 121.885 108.071 120.034 110.331 120.034Z" fill="#102550"/>
<path fill-rule="evenodd" clip-rule="evenodd" d="M143.709 154.314C144.407 157.472 144.133 160.025 144.114 161.643C142.017 160.611 135.511 149.757 134.898 148.279C134.525 147.386 129.796 136.058 128.997 134.742C126.634 130.869 120.622 131.413 122.189 137.593C122.221 137.713 124.212 144.991 126.751 150.487C127.257 151.585 131.717 162.122 131.875 163.763C128.397 163.638 118.385 156.295 116.823 154.733C116.079 153.989 108.164 144.2 107.643 143.68C103.635 139.671 97.7757 142.94 103.151 149.576C99.2405 150.366 102.147 156.9 102.914 158.737C102.914 158.737 101.635 160.852 101.97 162.643C102.305 164.433 106.016 172.041 106.537 172.636C115.693 183.103 125.607 187.237 137.748 191.576C148.573 191.892 156.246 190.074 156.246 176.784C154.781 171.338 154.056 161.094 153.34 155.668C152.917 152.487 147.113 148.223 145.007 145.512C144.235 144.521 143.403 141.192 141.273 142.963C139.222 144.67 138.999 151.073 143.709 154.314Z" fill="#FCC6AE"/>
<path d="M209.476 192.073C211.182 204.526 216.739 222.982 213.163 235.073C209.341 251.394 189.522 244.484 179.362 238.128C162.473 227.558 152.024 207.009 137.483 192.199C129.996 189.023 125.067 188.232 118.148 183.312C114.256 180.541 109.043 176.644 105.965 173.124C105.049 172.073 101.528 164.396 101.226 162.777C100.887 160.973 101.952 159.141 102.286 158.625C101.556 157.109 100.984 155.76 100.705 154.798C100.254 153.24 100.436 150.022 102.04 149.153C101.956 149.018 101.877 148.892 101.807 148.776C100.873 147.265 100.291 145.963 100.25 144.814C100.143 141.894 103.449 140.345 106.044 141.629C108.122 142.656 110.717 146.279 112.112 147.981C114.405 150.78 116.925 153.849 117.306 154.235C117.343 154.235 121.119 156.863 124.877 159.318C127.606 161.103 129.755 162.229 131.015 162.764C128.341 157.402 123.123 143.163 121.673 137.416C120.031 130.929 126.332 129.664 129.434 134.407C130.299 135.551 134 144.614 135.116 147.353C136.66 151.134 140.747 157.695 143.616 160.597C143.635 159.062 143.523 155.286 143.421 154.765C140.431 152.603 139.176 148.553 139.287 145.842C139.371 143.754 140.785 140.862 143.551 142.28C144.588 142.81 144.886 144.121 145.472 144.977C146.411 146.344 147.909 147.744 149.406 149.148C151.201 150.827 153.344 153.291 153.954 155.742C154.293 158.253 154.381 161.187 154.609 163.828C156.046 180.373 167.197 186.521 180.892 193.138C188.22 196.681 196.828 199.969 202.064 206.33C195.009 201.671 185.774 197.649 180.017 194.868C163.519 186.888 154.995 180.699 153.512 164.093C153.279 161.475 153.103 157.904 152.856 155.97C152.349 154.021 150.81 151.989 148.643 149.962C147.099 148.516 145.556 147.074 144.546 145.605C144.123 144.986 143.658 143.586 143.04 143.27C141.222 142.34 140.44 144.707 140.394 145.888C140.268 149.013 141.835 152.333 144.416 154.11C144.23 154.947 145.453 159.82 144.244 162.54C141.733 161.02 135.297 150.757 134.079 147.776C132.977 145.075 129.317 136.109 128.541 135.086C125.728 131.375 121.422 131.896 122.751 137.155C125.016 146.139 130.038 155.486 132.805 164.689C128.89 163.856 128.22 163.061 124.179 160.634C120.552 158.458 116.237 155.319 116.316 155.24C115.883 154.807 113.344 151.706 111.029 148.883C109.745 147.321 107.262 143.81 105.421 142.898C103.793 142.094 101.589 142.949 101.654 144.777C101.686 145.646 102.189 146.735 103.002 148.051C103.891 149.492 105.774 152.357 107.532 154.97C109.187 157.435 110.722 159.662 111.177 160.225C114.521 164.34 122.579 168.069 125.751 172.078C123.03 171.924 111.954 163.824 110.224 161.699C109.74 161.103 108.039 158.248 106.364 155.751C105.118 153.896 103.802 151.906 102.821 150.38C102.189 150.706 101.766 153.412 102.058 154.417C103.035 157.774 107.741 166.121 109.996 168.953C113.237 173.026 120.877 174.844 123.449 178.486C121.129 178.885 110.457 171.794 108.899 169.827C107.434 167.986 104.997 163.935 103.133 160.308C102.858 160.82 102.547 161.634 102.71 162.508C102.965 163.875 106.36 171.292 107.104 172.143C110.429 175.942 114.781 179.048 118.864 181.978C125.825 186.967 130.791 187.697 138.353 190.939C152.042 204.549 163.584 225.335 180.943 235.989C190.792 242.034 206.825 248.916 211.527 233.994C214.526 224.47 209.587 201.987 208.146 191.459C208.555 191.622 208.992 191.817 209.476 192.073Z" fill="#EE9A7F"/>
<path d="M55.7203 42.698C55.2134 42.0237 54.8786 41.3448 54.7112 40.6612C54.5438 39.9776 54.474 39.3034 54.5112 38.6477C54.5438 37.9921 54.6228 37.3457 54.7484 36.7133C54.8739 36.0809 54.9855 35.4763 55.0832 34.909C55.1808 34.3417 55.2134 33.7977 55.1762 33.2861C55.139 32.7746 54.9576 32.305 54.6414 31.8818C54.1206 31.189 53.4231 30.8448 52.5349 30.8448C51.6514 30.8448 50.74 31.2029 49.796 31.9097C48.8939 32.5886 48.2243 33.3791 47.7965 34.2859C47.364 35.1927 47.1734 36.1553 47.2152 37.1783L42.1931 37.7456C42.0815 35.9972 42.4489 34.258 43.2859 32.5328C44.1229 30.8076 45.5133 29.2173 47.457 27.7618C48.8986 26.683 50.3215 25.9343 51.7305 25.5298C53.1348 25.1206 54.4461 25.0787 55.6645 25.3949C56.8781 25.7158 57.9198 26.4505 58.7847 27.6037C59.3473 28.3524 59.7286 29.1011 59.9286 29.8544C60.1286 30.603 60.2076 31.3285 60.1611 32.026C60.1146 32.7235 60.0216 33.407 59.8821 34.086C59.7426 34.7602 59.6217 35.4066 59.5147 36.0297C59.4078 36.6482 59.3799 37.2434 59.4264 37.806C59.4729 38.3687 59.6914 38.9128 60.082 39.4336L55.7203 42.698ZM63.3371 48.292C62.528 48.8965 61.6724 49.1337 60.7656 49.0081C59.8588 48.8779 59.1381 48.4594 58.6033 47.748C58.0546 47.0179 57.8593 46.2134 58.0081 45.3346C58.1569 44.4557 58.6405 43.7117 59.445 43.1072C60.2727 42.4887 61.1237 42.2329 61.9979 42.3399C62.8768 42.4468 63.5882 42.8654 64.1369 43.6001C64.6717 44.3115 64.8763 45.116 64.7554 46.0181C64.6392 46.9156 64.1648 47.6736 63.3371 48.292Z" fill="#00009F"/>
<path d="M66.2992 23.1164C66.1643 22.1724 66.2062 21.3121 66.4108 20.5402C66.6201 19.7683 66.9177 19.0661 67.3129 18.4337C67.7035 17.8013 68.136 17.2014 68.6103 16.6388C69.08 16.0761 69.5217 15.5413 69.9309 15.0298C70.3401 14.5183 70.6656 13.9975 70.9075 13.4674C71.1493 12.9373 71.2283 12.3746 71.1446 11.7841C71.0098 10.8122 70.4982 10.0868 69.6194 9.60316C68.7405 9.11955 67.6384 8.97539 66.3178 9.1614C65.0483 9.3381 63.9509 9.76126 63.0302 10.4309C62.1048 11.0958 61.384 11.9468 60.8725 12.9838L55.5714 10.7982C56.4177 8.99864 57.7337 7.47341 59.51 6.21788C61.2864 4.96235 63.537 4.14394 66.2666 3.76263C68.2894 3.47897 70.1123 3.51617 71.7352 3.87888C73.3534 4.24159 74.6787 4.91585 75.7157 5.89703C76.748 6.8782 77.3804 8.18023 77.6082 9.79846C77.7571 10.8494 77.7245 11.8073 77.5152 12.6583C77.306 13.5139 76.9851 14.2719 76.5573 14.9415C76.1295 15.6064 75.6599 16.2389 75.153 16.8341C74.6461 17.4293 74.1672 18.0059 73.7254 18.5639C73.279 19.1219 72.9256 19.6939 72.6652 20.2798C72.4048 20.8657 72.3257 21.526 72.428 22.2514L66.2992 23.1164ZM70.8052 32.8397C69.6705 32.9978 68.6894 32.7653 67.857 32.1422C67.0246 31.5144 66.541 30.7053 66.3969 29.7056C66.2527 28.6779 66.4945 27.7711 67.1269 26.9806C67.7593 26.1901 68.6429 25.7158 69.7775 25.553C70.9354 25.3903 71.9258 25.5995 72.7349 26.1901C73.5487 26.776 74.023 27.5851 74.1718 28.6081C74.3113 29.6079 74.0742 30.5193 73.465 31.3517C72.8512 32.1841 71.9677 32.677 70.8052 32.8397Z" fill="#00009F"/>
<path fill-rule="evenodd" clip-rule="evenodd" d="M113.265 127.153C114.674 127.153 115.814 128.292 115.814 129.701C115.814 131.11 114.674 132.25 113.265 132.25C111.856 132.25 110.717 131.11 110.717 129.701C110.717 128.292 111.861 127.153 113.265 127.153Z" fill="#EBEBEB"/>
<path fill-rule="evenodd" clip-rule="evenodd" d="M113.265 134.747C114.674 134.747 115.814 135.886 115.814 137.295C115.814 138.704 114.674 139.843 113.265 139.843C111.856 139.843 110.717 138.704 110.717 137.295C110.717 135.891 111.861 134.747 113.265 134.747Z" fill="#EBEBEB"/>
</g>
<defs>
<linearGradient id="paint0_linear_95_151" x1="388.697" y1="217.819" x2="-84.311" y2="83.1685" gradientUnits="userSpaceOnUse">
<stop stop-color="white"/>
<stop offset="1" stop-color="#FFDFDF"/>
</linearGradient>
<clipPath id="clip0_95_151">
<rect width="264.349" height="246.26" fill="white" transform="translate(30.0283 1.73987)"/>
</clipPath>
</defs>
</svg>
